<svg width="204" height="66" viewBox="0 0 204 66" fill="none" xmlns="http://www.w3.org/2000/svg">
<g opacity="0.7" clip-path="url(#clip0_275_724)">
<path d="M71.1368 28.1125C71.4173 27.1443 71.3902 26.1038 71.3992 25.0995C71.3992 24.9909 71.3992 24.8823 71.3992 24.7828C71.4173 23.6427 71.2092 22.4936 70.7748 21.435C70.1685 19.9511 69.1007 18.6844 67.6891 17.9062C65.7888 16.8657 63.5717 16.6123 61.409 16.6033C53.9254 16.5671 46.1341 19.5892 41.8358 25.7238C41.4195 26.321 41.0213 26.9543 40.4331 27.3705C39.845 27.7868 38.9762 27.9315 38.4061 27.4791C38.9219 24.9004 39.0848 22.0412 37.6551 19.8425C36.0624 17.3905 32.9224 16.4223 29.9995 16.3228C21.8463 16.0513 14.435 21.064 8.61647 26.7824C5.66646 29.6778 2.90648 32.8808 1.30479 36.6811C0.626103 38.3007 0.155549 40.0741 0.354629 41.8204C0.707545 44.9239 3.187 47.5207 6.10986 48.6336C9.03273 49.7465 12.3085 49.5837 15.349 48.8598C21.7377 47.3307 27.502 43.3224 31.1578 37.8664C28.2259 37.5678 25.2759 37.5225 22.3349 37.7306C21.9006 37.7578 21.4391 37.803 21.0771 38.0564C20.7242 38.3097 20.5251 38.7169 20.3079 39.0879C19.3849 40.6351 17.7289 41.7209 15.9462 41.9471C14.9327 42.0828 13.7654 41.8747 13.1591 41.0513C12.77 40.5265 12.6886 39.8298 12.6886 39.1783C12.6886 37.7306 13.0686 36.292 13.7654 35.0252C13.9192 34.7448 14.1002 34.4643 14.3717 34.3014C14.7065 34.0933 15.1318 34.0842 15.53 34.0842C21.3033 34.0752 27.0767 34.0571 32.85 34.0481C33.3205 34.0481 33.8635 34.0752 34.144 34.4462C34.4517 34.8443 34.3069 35.4234 34.144 35.912C33.0129 39.4317 32.5333 43.7567 35.1394 46.3806C36.7592 48.0093 39.1844 48.5341 41.4738 48.6517C50.0705 49.1041 58.7666 44.6615 63.4269 37.423C59.9521 37.1968 56.4682 37.1335 52.9933 37.233C52.4232 39.8388 49.8804 41.8566 47.22 41.8385C46.4237 41.8385 45.5821 41.6304 45.0391 41.0513C44.27 40.2189 44.3605 38.9159 44.5957 37.803C45.4644 33.6861 47.6272 29.8588 50.6858 26.9815C53.2195 24.6018 57.1921 22.6022 60.6398 24.1675C58.3413 24.5204 56.2419 26.0043 55.1561 28.0582C54.4231 29.4516 54.2149 31.3427 55.337 32.4556C55.9705 33.089 56.8844 33.3242 57.7622 33.469C60.486 33.9214 63.3455 33.8038 65.9245 32.7542C66.8565 32.3742 67.7162 31.8494 68.5487 31.2884C69.4627 30.6731 70.3133 29.8769 70.8201 28.8816C70.9467 28.6282 71.0463 28.3749 71.1187 28.1125H71.1368ZM26.7056 26.7824C26.6332 27.0448 26.5518 27.3253 26.3437 27.5063C26.2894 27.5515 26.226 27.5967 26.1536 27.6239C25.9274 27.7234 25.6559 27.7325 25.4026 27.7325C23.4208 27.7325 21.4481 27.7596 19.4664 27.7234C18.6519 27.7053 19.1225 26.71 19.1225 26.71C20.0636 24.7104 22.1992 23.1813 24.4253 23.0365C25.0316 23.0003 25.6831 23.0636 26.1717 23.4346C27.131 24.1675 27.0043 25.6243 26.6966 26.7915L26.7056 26.7824Z" fill="#57A5D7"/>
<path d="M100.429 17.8066C98.945 16.8294 97.1714 16.3318 95.4068 16.2232C93.1445 16.0784 90.8823 16.5399 88.7105 17.2004C86.2582 17.9423 84.3307 18.6571 82.0865 19.9058C79.8333 21.1544 77.2543 22.9279 75.3087 24.6199C73.3179 26.3571 71.4267 28.2843 70.0331 30.5373C69.282 31.7407 68.6124 33.0165 67.988 34.3013C67.4451 35.4233 66.9112 36.5905 66.6578 37.8211C66.6306 37.9477 66.6125 38.0654 66.5944 38.192C66.0515 42.2456 66.6578 47.3759 72.7116 48.2083C77.9239 48.9231 82.6385 47.9821 87.2445 45.3491C91.5247 42.897 95.4249 39.6759 98.6554 35.9481C100.212 34.1566 101.723 32.2384 102.809 30.1211C103.406 28.9449 103.877 27.6781 104.031 26.3661C104.7 20.8196 101.388 18.449 100.429 17.8157V17.8066ZM92.2306 26.1037C92.2034 26.4204 92.1401 26.7281 92.0496 27.0267C91.8958 27.5605 91.6786 28.0853 91.4524 28.601C89.4706 33.0527 86.7378 37.3325 82.9643 40.4812C81.996 41.2955 80.1772 42.7161 78.856 42.0013C77.9782 41.5217 77.8425 40.3183 77.9149 39.323C78.1954 35.2061 80.0505 31.3607 82.6385 28.212C84.0502 26.5019 88.9729 20.8377 91.5247 23.6608C92.1129 24.3122 92.303 25.2442 92.2215 26.1128L92.2306 26.1037Z" fill="#57A5D7"/>
<path d="M143.72 0.12666C141.041 0.0452272 138.453 -0.153831 135.775 0.22619C130.463 0.968135 125.034 3.10349 121.007 6.68654C117.658 9.66338 115.405 13.1288 112.817 16.7028C112.301 17.4086 109.189 16.7571 108.456 16.7028C107.94 16.6666 106.944 16.4133 106.456 16.6395C105.424 17.119 105.162 19.0372 104.682 19.9782C103.804 21.7064 105.153 21.8964 105.487 21.6974C106.41 21.1545 107.596 21.0911 108.582 21.5164C108.817 21.6159 109.062 21.7607 109.189 21.9869C109.433 22.4122 109.225 22.946 109.008 23.3894C105.931 29.6597 102.565 35.74 99.1802 41.8475C97.0898 45.1863 95.2076 48.6427 93.1173 51.9905C91.0541 55.293 88.8914 59.4642 84.5387 59.7809C84.1858 59.808 83.7153 59.7176 83.6791 59.3647C83.661 59.1837 83.7696 59.0118 83.8872 58.867C85.0274 57.365 87.2806 56.044 87.9864 54.2887C89.3619 50.8775 85.0093 49.2217 82.4574 49.5746C78.0505 50.1899 72.1595 54.6597 73.4988 59.7266C73.9332 61.3915 75.2543 62.6853 76.6841 63.554C78.3944 64.6035 80.2132 64.9564 82.195 65.1102C84.3034 65.2821 86.6019 65.3545 88.6651 64.8569C91.3165 64.2235 93.805 62.9477 95.9949 61.3281C101.415 57.3017 105.288 51.4928 108.691 45.7473C113.288 37.984 117.432 29.9673 121.568 21.9598C123.948 17.3543 125.513 11.1925 130.173 8.27901C132.418 6.87656 135.06 6.26128 137.675 6.02603C139.014 5.89936 140.354 5.88126 141.693 5.89936C142.625 5.91746 143.991 6.22509 145.014 6.05318C147.041 5.70935 148.353 2.04486 148.941 0.361911C147.213 0.316671 145.484 0.12666 143.756 0.12666H143.72Z" fill="#57A5D7"/>
<path d="M130.037 39.7303C130.037 39.7303 129.965 39.7303 129.929 39.7303C129.133 39.7122 128.363 39.2326 128.001 38.5178C127.413 37.3596 128.101 36.102 128.671 35.0795C133.078 27.1081 137.774 19.2996 142.77 11.6901C144.29 9.37382 140.154 9.76289 138.897 9.77194C136.87 9.78099 133.223 9.13857 132.101 11.1473C128.119 18.2591 124.128 25.3709 120.174 32.4918C119.169 34.2923 118.174 36.0929 117.179 37.9025C116.382 39.3321 114.998 41.0603 114.763 42.6799C114.355 45.521 116.79 47.9369 119.504 48.0545C121.006 48.1179 122.49 47.7107 123.938 47.2945C125.223 46.9235 126.517 46.5435 127.667 45.8558C129.413 44.7972 130.101 43.06 130.942 41.2956C131.16 40.8341 131.322 40.2008 130.924 39.8841C130.689 39.6941 130.354 39.7212 130.046 39.7303H130.037Z" fill="#57A5D7"/>
<path d="M197.499 16.2867C191.517 15.3547 185.726 18.0872 181.165 21.7608C180.758 22.0865 180.324 22.4484 179.808 22.5118C178.613 22.6656 178.378 20.9555 178.161 20.1321C177.917 19.173 177.5 18.0963 177.365 17.3453C177.256 16.7572 176.84 16.2776 176.243 16.2776H169.628C168.922 16.2776 168.397 16.9472 168.569 17.6348L172.532 28.8907C172.768 29.5512 172.55 30.2931 171.989 30.7184C167.239 34.3286 163.022 39.4046 157.158 41.3499C151.855 43.1143 143.901 42.0195 145.448 34.7358C145.512 34.4372 145.602 34.1114 145.856 33.9214C146.073 33.7586 146.362 33.7314 146.643 33.7133C151.937 33.4238 157.23 34.2924 162.533 34.1657C163.094 34.1567 163.673 34.1205 164.162 33.849C164.642 33.5776 164.958 33.1071 165.248 32.6456C166.759 30.2027 167.764 27.443 168.18 24.6019C169.763 13.7984 157.077 15.1918 150.398 17.5986C145.204 19.4716 140.924 23.0637 137.757 27.5425C135.259 31.0713 132.499 35.6134 133.114 40.1284C133.775 44.9782 138.806 47.5388 143.168 48.3532C146.453 48.9684 149.837 48.7513 153.14 48.2536C159.185 47.3488 165.139 45.503 170.406 42.3724C170.65 42.2276 176.442 39.1965 175.998 40.2913C175.862 40.6351 176.604 42.1824 176.722 42.5352C177.184 43.9015 177.699 45.2587 178.279 46.5888C178.396 46.8602 178.523 47.1407 178.731 47.3488C179.726 48.326 186.251 48.5522 186.622 47.0322C186.902 45.874 185.889 43.9739 185.536 42.8972C184.667 40.228 181.572 35.4415 182.432 32.6276C182.667 31.8675 183.138 31.207 183.609 30.5646C185.482 28.0221 187.427 25.5067 189.789 23.4075C190.377 22.8918 191.499 21.9327 192.097 22.7289C192.323 23.0365 192.16 23.8147 192.214 24.1766C192.44 25.7057 193.354 26.3753 194.829 26.701C196.992 27.1806 199.408 27.1625 201.318 25.9048C202.603 25.0633 203.535 23.6247 203.544 22.0865C203.544 20.8469 202.965 19.6616 202.123 18.7568C200.947 17.4901 199.227 16.531 197.508 16.2686L197.499 16.2867ZM152.308 26.2034C152.543 25.6062 153.167 24.8914 153.448 24.629C154.317 23.7785 155.457 23.1994 156.66 23.0456C157.239 22.9642 157.873 22.9913 158.343 23.3351C159.248 23.9776 159.149 25.3529 158.814 26.4115C158.751 26.6106 158.669 26.8277 158.506 26.9544C158.316 27.0992 158.063 27.1082 157.819 27.1082C156.199 27.1082 154.57 27.1172 152.95 27.1263C152.181 27.1263 152.109 26.7191 152.308 26.2215V26.2034Z" fill="#57A5D7"/>
<path d="M36.0262 7.30166C35.4742 8.04361 34.8408 8.61364 34.1169 8.99366C33.402 9.37368 32.6147 9.57274 31.7641 9.57274C31.2392 9.57274 30.7958 9.48226 30.4339 9.3013C30.0628 9.12034 29.7823 8.85794 29.5832 8.51411C29.357 8.116 29.2484 7.66359 29.2756 7.1569C29.2937 6.6502 29.4475 6.07112 29.719 5.42871C30.2438 4.18911 31.0311 3.18477 32.0718 2.42473C33.1124 1.66469 34.2164 1.28467 35.3928 1.28467C35.8271 1.28467 36.2705 1.33896 36.7049 1.45658C37.1483 1.57421 37.6008 1.74612 38.0713 1.97232L37.2931 3.80909H36.6868C36.8406 3.13953 36.7863 2.64189 36.5239 2.3252C36.2615 2.00852 35.7728 1.84565 35.058 1.84565C34.2073 1.84565 33.4291 2.14424 32.7323 2.75046C32.0356 3.35669 31.4383 4.2434 30.9406 5.41966C30.4429 6.58686 30.28 7.47358 30.461 8.0798C30.642 8.68603 31.1578 8.98462 32.0084 8.98462C32.6056 8.98462 33.1576 8.83984 33.6644 8.55935C34.1711 8.27886 34.6327 7.8536 35.0399 7.29262H36.0262V7.30166Z" fill="#656666"/>
<path d="M39.2384 9.57286C38.4149 9.57286 37.8629 9.30142 37.5915 8.75853C37.4014 8.37851 37.3743 7.90801 37.501 7.36512C37.5553 7.12082 37.6458 6.85843 37.7634 6.57793C38.1435 5.67312 38.7045 4.94927 39.4375 4.39734C40.1705 3.85445 40.9577 3.58301 41.7812 3.58301C42.6047 3.58301 43.1657 3.85445 43.4281 4.39734C43.6091 4.77736 43.6363 5.23881 43.5096 5.79075C43.4553 6.03505 43.3648 6.29744 43.2472 6.57793C42.8671 7.48275 42.306 8.2066 41.5731 8.75853C40.8401 9.30142 40.0528 9.58191 39.2293 9.58191L39.2384 9.57286ZM39.4646 9.03902C39.9895 9.03902 40.4781 8.83092 40.9306 8.4147C41.374 7.99849 41.7721 7.38322 42.116 6.56889C42.2699 6.19791 42.3875 5.87218 42.4508 5.58264C42.5323 5.23881 42.5413 4.95832 42.4961 4.73212C42.4056 4.31591 42.0979 4.1078 41.564 4.1078C41.0301 4.1078 40.5505 4.31591 40.0981 4.73212C39.6547 5.14833 39.2565 5.7636 38.9126 6.57793C38.7588 6.94891 38.6412 7.27464 38.5778 7.56418C38.4964 7.90801 38.4873 8.19755 38.5326 8.42375C38.6231 8.83996 38.9307 9.04807 39.4556 9.04807L39.4646 9.03902Z" fill="#656666"/>
<path d="M44.831 8.84921H45.7631L45.5278 9.41924H43.6094L46.9123 1.665H45.9621L46.1974 1.09497H48.1249L44.822 8.84921H44.831Z" fill="#656666"/>
<path d="M52.4685 7.70895C52.0703 8.31517 51.6088 8.77663 51.0749 9.09331C50.541 9.41 49.9619 9.57286 49.3375 9.57286C48.514 9.57286 47.9621 9.30142 47.6906 8.75853C47.5005 8.37851 47.4734 7.90801 47.6001 7.36512C47.6544 7.12082 47.7449 6.85843 47.8625 6.57793C48.2516 5.67312 48.8127 4.94023 49.5456 4.39734C50.2786 3.85445 51.0568 3.58301 51.8894 3.58301C52.2513 3.58301 52.5862 3.62825 52.9119 3.70968C53.2377 3.79111 53.5363 3.91779 53.8168 4.0897L53.2015 5.54645H52.6314C52.6404 5.49216 52.6495 5.44692 52.6676 5.41073C52.7671 4.98547 52.749 4.66878 52.6133 4.46067C52.4595 4.23447 52.1518 4.11685 51.6812 4.11685C51.1473 4.11685 50.6587 4.32495 50.2153 4.73212C49.7719 5.13928 49.3737 5.7636 49.0208 6.57793C48.867 6.94891 48.7493 7.28369 48.686 7.58228C48.6045 7.9261 48.5864 8.2066 48.6407 8.4328C48.7312 8.84901 49.0479 9.05712 49.5818 9.05712C50.0072 9.05712 50.3963 8.94854 50.7401 8.72234C51.084 8.50518 51.4007 8.1704 51.6903 7.718H52.4776L52.4685 7.70895Z" fill="#656666"/>
<path d="M53.3282 9.41924L56.6311 1.665H55.69L55.9253 1.09497H57.8527L56.3053 4.74136C56.6492 4.35229 57.0111 4.06275 57.3822 3.87274C57.7532 3.67368 58.1332 3.57415 58.5223 3.57415C59.1467 3.57415 59.5358 3.75512 59.6716 4.11704C59.7621 4.3342 59.7621 4.62374 59.6716 4.98566C59.6173 5.22091 59.5268 5.49236 59.3911 5.79999L58.097 8.84921H58.9748L58.7395 9.41924H56.8754L58.278 6.11668C58.4319 5.7457 58.5404 5.43807 58.5947 5.19377C58.649 4.97661 58.6581 4.8047 58.6219 4.68707C58.5676 4.43373 58.3142 4.298 57.8799 4.298C57.4455 4.298 57.0021 4.46087 56.622 4.79565C56.242 5.13043 55.9162 5.60998 55.6447 6.24335L54.2964 9.41019H53.3101L53.3282 9.41924Z" fill="#656666"/>
<path d="M62.5216 9.5729C61.6981 9.5729 61.1461 9.30145 60.8747 8.75857C60.6846 8.37855 60.6575 7.90804 60.7842 7.36516C60.8385 7.12086 60.929 6.85846 61.0466 6.57797C61.4267 5.67316 61.9877 4.94931 62.7207 4.39737C63.4537 3.85449 64.2409 3.58304 65.0644 3.58304C65.8879 3.58304 66.4489 3.85449 66.7113 4.39737C66.8923 4.77739 66.9195 5.23885 66.7928 5.79078C66.7385 6.03508 66.648 6.29748 66.5304 6.57797C66.1503 7.48278 65.5892 8.20663 64.8563 8.75857C64.1233 9.30145 63.336 9.58194 62.5125 9.58194L62.5216 9.5729ZM62.7478 9.03906C63.2727 9.03906 63.7613 8.83095 64.2138 8.41474C64.6572 7.99852 65.0554 7.38325 65.3992 6.56892C65.5531 6.19795 65.6707 5.87222 65.734 5.58268C65.8155 5.23885 65.8245 4.95836 65.7793 4.73215C65.6888 4.31594 65.3811 4.10783 64.8472 4.10783C64.3133 4.10783 63.8337 4.31594 63.3813 4.73215C62.9379 5.14837 62.5397 5.76364 62.1958 6.57797C62.042 6.94894 61.9244 7.27467 61.861 7.56421C61.7796 7.90804 61.7705 8.19758 61.8158 8.42379C61.9063 8.84 62.2139 9.04811 62.7388 9.04811L62.7478 9.03906ZM65.8517 2.0901L65.6707 1.79152C65.6164 1.71008 65.5621 1.64675 65.5169 1.62865C65.4716 1.60151 65.4083 1.58341 65.3449 1.58341C65.1911 1.58341 65.0463 1.65579 64.9015 1.80056C64.7567 1.93629 64.621 2.14439 64.4853 2.41584H63.9695C64.1776 1.93629 64.431 1.56531 64.7205 1.29387C65.0101 1.03147 65.3178 0.9048 65.6435 0.9048C65.7793 0.9048 65.8969 0.931944 65.9874 0.977185C66.0779 1.03147 66.1684 1.11291 66.2498 1.23053L66.4308 1.52007C66.4761 1.60151 66.5213 1.65579 66.5756 1.68294C66.6208 1.71008 66.6842 1.72818 66.7566 1.72818C66.9104 1.72818 67.0643 1.65579 67.209 1.51102C67.3538 1.36625 67.4896 1.1672 67.6162 0.895752H68.132C67.9239 1.3753 67.6705 1.74627 67.381 2.01772C67.0914 2.28011 66.7837 2.40679 66.458 2.40679C66.3222 2.40679 66.2046 2.37964 66.1141 2.3344C66.0236 2.28011 65.9331 2.19868 65.8517 2.08106V2.0901Z" fill="#656666"/>
<path d="M68.5582 7.22941C68.5129 7.36514 68.4767 7.49181 68.4496 7.61848C68.3682 7.95326 68.3682 8.23376 68.4405 8.45091C68.5582 8.83998 68.902 9.03904 69.4631 9.03904C69.8793 9.03904 70.1961 8.9757 70.4313 8.84903C70.8476 8.62282 71.1281 8.36948 71.282 8.07994H72.0059C71.7616 8.53234 71.3363 8.92141 70.73 9.2381C70.3047 9.45525 69.7255 9.57288 68.9925 9.57288C68.2596 9.57288 67.7528 9.30143 67.4904 8.75855C67.3004 8.37853 67.2732 7.90802 67.3999 7.35609C67.4542 7.11179 67.5447 6.85844 67.6623 6.57795C68.0424 5.67314 68.6034 4.94929 69.3274 4.39735C70.0603 3.84542 70.8476 3.57397 71.7073 3.57397C73.1008 3.57397 73.689 4.07162 73.4538 5.05787C73.2909 5.78172 72.7932 6.31555 71.9878 6.66843C71.1553 7.03036 70.0241 7.21132 68.5672 7.22941H68.5582ZM71.5806 6.03506C72.033 5.79981 72.3136 5.46503 72.4131 5.02167C72.5579 4.41545 72.2231 4.10781 71.4087 4.10781C70.929 4.10781 70.4856 4.28878 70.0694 4.6507C69.6531 5.01263 69.2278 5.68219 68.8025 6.66843C69.9608 6.61414 70.8838 6.40604 71.5806 6.03506Z" fill="#656666"/>
<path d="M73.6887 7.77232H74.2588C74.2226 7.87185 74.1865 7.97137 74.1684 8.06186C74.0145 8.71332 74.3855 9.03905 75.2633 9.03905C76.1411 9.03905 76.7293 8.71332 77.0098 8.06186C77.0369 7.99852 77.0641 7.90804 77.0912 7.79041C77.1184 7.68183 77.0912 7.55516 76.9917 7.41944C76.9012 7.28372 76.6207 7.1299 76.1501 6.95799L75.5348 6.71369C75.1185 6.55987 74.8561 6.37891 74.7475 6.17985C74.648 5.98079 74.6208 5.76363 74.6751 5.52838C74.6932 5.4379 74.7294 5.33837 74.7746 5.2298C75.0009 4.705 75.3628 4.29784 75.8696 4.0083C76.3763 3.70971 76.9464 3.56494 77.5799 3.56494C78.2133 3.56494 78.8196 3.71876 79.4168 4.0264L78.892 5.26599H78.3219C78.3581 5.18455 78.3762 5.10312 78.3943 5.03978C78.4576 4.77739 78.4124 4.56023 78.2767 4.37022C78.1409 4.18926 77.8604 4.09878 77.4441 4.09878C76.6026 4.09878 76.0596 4.38832 75.8153 4.97645C75.7881 5.03978 75.761 5.12122 75.7338 5.2298C75.7067 5.33837 75.7338 5.456 75.8243 5.58267C75.9148 5.70935 76.1682 5.84507 76.5845 5.98984L77.2631 6.23414C77.7337 6.40605 78.0323 6.61416 78.159 6.8675C78.2495 7.04847 78.2766 7.22038 78.2314 7.40134C78.0595 8.15234 77.6251 8.72237 76.9374 9.11144C76.3944 9.41907 75.761 9.57289 75.0461 9.57289C74.3312 9.57289 73.6797 9.41907 73.1187 9.10239L73.6797 7.77232H73.6887Z" fill="#656666"/>
</g>
<defs>
<clipPath id="clip0_275_724">
<rect width="203.216" height="65.2369" fill="white" transform="translate(0.30957)"/>
</clipPath>
</defs>
</svg>
