<svg width="213" height="78" viewBox="0 0 213 78" fill="none" xmlns="http://www.w3.org/2000/svg">
<g opacity="0.4">
<path d="M133.981 0.000710604C133.748 1.3942 132.231 2.40824 130.846 2.08846C130.431 1.99324 130.025 1.8632 129.612 1.76301C129.149 1.65144 128.72 1.69408 128.372 2.06999C128.185 2.27038 127.618 2.37697 127.384 2.26967C127.194 2.18297 127.296 2.05507 127.344 1.9435C127.9 0.648071 128.944 0.104459 130.323 0.390832C130.774 0.484632 131.223 0.594775 131.679 0.671521C132.293 0.775269 132.702 0.55356 132.985 0L133.981 0.000710604Z" fill="#121F42"/>
<path d="M172.115 46.659C171.887 47.5302 171.772 48.4021 171.44 49.2292C170.532 51.4896 168.922 53.1198 166.874 54.3598C165.083 55.4441 163.116 56.0496 161.064 56.3743C158.675 56.7531 156.269 56.7417 153.869 56.4738C152.303 56.299 150.77 55.96 149.297 55.3823C147.441 54.6554 145.767 53.6342 144.43 52.1533C142.997 50.5666 142.135 48.7012 141.942 46.541C141.761 44.5065 141.989 42.5453 142.867 40.687C143.222 39.9352 143.71 39.2644 144.241 38.6227C145.13 37.5476 146.235 36.7418 147.432 36.0532C149.214 35.0292 151.152 34.4778 153.171 34.1687C155.149 33.866 157.139 33.8134 159.129 33.9697C162.087 34.2028 164.902 34.9134 167.416 36.5712C168.834 37.5057 170.013 38.6846 170.86 40.147C171.426 41.1241 171.86 42.1729 171.902 43.3447C171.913 43.6446 172.078 43.943 172.115 44.2614V43.4818C172.115 40.6281 172.115 37.7743 172.115 34.9212C172.115 34.3961 172.121 34.3911 172.657 34.3911C182.226 34.3911 191.794 34.3875 201.362 34.3996C202.367 34.401 203.373 34.5034 204.379 34.5453C204.834 34.5645 205.235 34.858 205.681 34.8288C206.342 34.7855 206.948 34.978 207.555 35.1685C208.284 35.3973 209.014 35.6382 209.676 36.0326C211.497 37.1191 212.431 38.7741 212.734 40.8284C212.847 41.5916 212.872 42.3591 212.872 43.1294C212.867 47.3568 212.87 51.5834 212.869 55.8108C212.869 56.2173 212.666 56.421 212.26 56.4219C210.103 56.4219 207.945 56.4226 205.787 56.4219C205.284 56.4219 205.268 56.4063 205.268 55.9025C205.267 51.7348 205.266 47.5664 205.268 43.3987C205.268 42.6973 205.218 42.0038 205.05 41.3202C204.816 40.3722 204.239 39.7903 203.29 39.5131C202.435 39.263 201.561 39.2587 200.693 39.2282C199.355 39.1813 198.014 39.214 196.674 39.2147C196.178 39.2147 196.165 39.2296 196.165 39.7441C196.165 45.0487 196.165 50.3534 196.165 55.658C196.165 55.7881 196.158 55.9188 196.165 56.0489C196.176 56.2869 196.071 56.4042 195.83 56.3971C195.771 56.3956 195.711 56.3992 195.652 56.3992C193.435 56.3992 191.217 56.3999 189 56.3992C188.496 56.3992 188.481 56.3836 188.481 55.8797C188.481 50.5751 188.481 45.2704 188.481 39.9658C188.481 39.8357 188.474 39.705 188.481 39.5749C188.494 39.3184 188.379 39.214 188.122 39.214C185.443 39.2175 182.764 39.2175 180.083 39.214C179.829 39.214 179.709 39.3149 179.72 39.5721C179.726 39.7021 179.72 39.8322 179.72 39.9629C179.72 45.2321 179.72 50.5012 179.72 55.7703C179.72 56.1886 179.509 56.3983 179.086 56.3992C176.952 56.3992 174.818 56.3992 172.683 56.3992C172.118 56.3992 172.117 56.3971 172.117 55.8201C172.117 52.9073 172.117 49.9945 172.117 47.0818V46.6597L172.115 46.659ZM149.828 45.3266C149.808 45.91 149.867 46.5097 149.995 47.1024C150.398 48.972 151.445 50.3832 153.177 51.1741C155.115 52.0595 157.179 52.1477 159.24 51.6879C161.86 51.1031 163.587 49.5575 164.11 46.8473C164.3 45.8631 164.29 44.8668 164.136 43.8777C163.755 41.4332 162.3 39.8976 160.01 39.0988C158.936 38.7244 157.807 38.6618 156.683 38.6597C155.464 38.6576 154.288 38.9183 153.183 39.4399C152.505 39.7604 151.874 40.174 151.379 40.741C150.242 42.0443 149.787 43.5941 149.828 45.3266Z" fill="#121F42"/>
<path d="M20.0811 56.9805C19.0345 56.9805 18.2476 57.0338 17.47 56.9705C15.1563 56.7822 12.8497 56.5413 10.5979 55.9188C9.55203 55.6296 8.53391 55.2665 7.57129 54.7904C5.24835 53.6399 3.36722 51.9949 2.1065 49.6861C1.40641 48.4042 0.953205 47.0448 0.664348 45.6222C0.17628 43.2246 0.0909034 40.8064 0.386875 38.384C0.705613 35.7753 1.49606 33.3351 3.21354 31.2744C4.85988 29.2989 6.95232 27.9914 9.38199 27.1969C10.3923 26.8665 11.4011 26.5261 12.4513 26.3442C13.1257 26.227 13.8137 26.1872 14.4868 26.0628C16.481 25.6954 18.4945 25.7104 20.5079 25.7253C21.8953 25.7359 23.2912 25.7658 24.6523 26.0287C25.6704 26.2248 26.7027 26.3186 27.7166 26.5837C28.7397 26.8509 29.7649 27.1017 30.7254 27.5295C31.9996 28.0973 33.2525 28.7155 34.3297 29.635C36.2023 31.2332 37.4921 33.2044 38.1851 35.5622C38.3964 36.282 38.5743 37.0225 38.681 37.7551C39.2018 41.3429 39.1285 44.9016 37.7554 48.3232C36.3808 51.749 33.8245 53.9632 30.4287 55.2864C28.6948 55.9622 26.8913 56.3445 25.0585 56.6287C23.3197 56.8988 21.5673 56.9087 20.0811 56.9805ZM9.18775 41.0537C9.15574 42.5055 9.29234 43.8684 9.61891 45.2107C10.3496 48.2145 12.1183 50.2724 15.1278 51.1514C17.8478 51.9458 20.6097 51.9508 23.3609 51.3553C26.7184 50.6284 28.8101 48.5605 29.6496 45.2257C30.201 43.0363 30.1747 40.8157 29.9157 38.6078C29.7756 37.4119 29.3572 36.25 28.7638 35.177C28.0723 33.9285 27.136 32.9216 25.8739 32.2237C24.6985 31.5735 23.388 31.3462 22.1216 30.9766C21.7922 30.8807 21.4677 31.0306 21.1461 30.9589C19.8783 30.6732 18.6012 30.9113 17.3334 30.9368C16.5451 30.9525 15.7518 31.2332 14.9862 31.494C13.5512 31.9829 12.2805 32.7091 11.2859 33.8965C10.1084 35.3021 9.58689 36.9727 9.29021 38.7194C9.15716 39.5039 9.13724 40.3211 9.18704 41.0558L9.18775 41.0537Z" fill="#121F42"/>
<path d="M124.282 77.895C122.872 77.8928 121.461 77.8914 120.051 77.8893C117.692 77.8857 115.333 77.8232 112.975 77.7656C111.856 77.7379 110.742 77.6398 109.622 77.6306C109.094 77.6263 108.549 77.6093 108.012 77.524C107.494 77.4423 106.959 77.4785 106.433 77.4395C105.709 77.3855 104.986 77.3123 104.264 77.2419C103.972 77.2135 103.679 77.2078 103.386 77.1737C102.488 77.0685 101.578 77.0643 100.684 76.9342C99.7329 76.7964 98.776 76.7168 97.8226 76.6137C96.5029 76.4709 95.2002 76.2165 93.8804 76.0737C93.329 76.014 92.7698 75.9308 92.2191 75.8193C91.3504 75.6438 90.4682 75.5372 89.5952 75.3823C88.5451 75.1954 87.4942 75.0106 86.4519 74.7839C84.913 74.4485 83.3862 74.0577 81.8445 73.7351C81.4546 73.6534 81.0277 73.7308 80.6193 73.7578C80.1362 73.7898 79.656 73.8609 79.1729 73.8886C77.9378 73.9582 76.7048 74.0563 75.469 74.1167C74.4459 74.1671 73.4235 74.2325 72.3983 74.2517C70.8508 74.2801 69.3034 74.349 67.7559 74.3796C63.8969 74.4556 60.0386 74.4642 56.1803 74.3299C55.9021 74.3199 55.624 74.3249 55.3458 74.3178C54.4728 74.2957 53.592 74.3284 52.7283 74.2247C52.221 74.1636 51.7052 74.2602 51.1922 74.0797C50.9738 74.003 50.6486 74.0733 50.369 74.0534C49.7323 74.0094 49.0891 74.0264 48.4566 73.9539C47.4186 73.8353 46.3684 73.868 45.3347 73.6655C45.0102 73.6022 44.6488 73.6775 44.3052 73.6086C43.7239 73.4921 43.122 73.5525 42.5443 73.4494C41.9666 73.3457 41.3832 73.3492 40.8062 73.259C39.4594 73.0479 38.1069 72.8745 36.7572 72.6841C36.2713 72.6159 35.7796 72.5711 35.3022 72.4624C34.7701 72.3409 34.2116 72.3736 33.6943 72.149C33.5371 72.0808 33.3293 72.1284 33.1351 72.0865C32.551 71.96 31.947 71.928 31.3557 71.8271C30.4486 71.6722 29.5543 71.4526 28.6543 71.2608C26.7312 70.8515 24.8209 70.3889 22.9141 69.912C22.5107 69.8111 22.1073 69.7116 21.7267 69.5248C22.1522 69.4516 22.5577 69.5951 22.9675 69.6527C23.6128 69.7436 24.2531 69.8694 24.8963 69.9781C25.7081 70.116 26.517 70.2744 27.3324 70.3803C28.0509 70.4734 28.7681 70.5693 29.4831 70.6866C30.1946 70.8031 30.9089 70.9019 31.6225 71.0035C32.0828 71.0689 32.5446 71.1265 33.0063 71.184C33.8601 71.2906 34.7124 71.4022 35.5676 71.4981C36.1759 71.5663 36.7743 71.7632 37.4004 71.6388C37.5619 71.6068 37.6921 71.7553 37.8664 71.7667C38.6952 71.8221 39.5227 71.9003 40.3501 71.9749C41.3654 72.0666 42.3785 72.1952 43.3952 72.2457C44.1593 72.284 44.922 72.348 45.684 72.3828C46.5776 72.424 47.4734 72.4723 48.3705 72.483C50.0354 72.5022 51.7009 72.4681 53.365 72.4958C54.307 72.5114 55.2469 72.4588 56.1874 72.4517C57.2568 72.4432 58.3304 72.3892 59.399 72.3174C60.383 72.2513 61.3684 72.1952 62.3488 72.0979C62.6952 72.0637 63.0752 72.1412 63.4074 71.9209C63.485 71.8697 63.6572 71.987 63.776 71.9664C64.4135 71.857 65.0595 71.8776 65.6998 71.8172C66.3053 71.7603 66.9079 71.6786 67.5126 71.6182C68.2653 71.5429 69.0167 71.459 69.7673 71.3645C70.2646 71.302 70.7647 71.2465 71.2642 71.1947C71.8796 71.1314 72.4858 71.0071 73.104 70.9566C73.7422 70.904 74.3747 70.7804 75.0108 70.6944C76.0865 70.5487 77.1673 70.4357 78.2366 70.2553C79.0754 70.1138 79.9249 70.0627 80.7595 69.9064C81.0056 69.8602 81.2582 69.8666 81.5015 69.7429C81.6808 69.6512 81.9163 69.7443 82.1383 69.7145C83.1329 69.5809 84.1219 69.399 85.1179 69.2896C86.373 69.1517 87.6131 68.92 88.8652 68.7673C89.9531 68.6351 91.0317 68.4347 92.1174 68.2805C93.0423 68.149 93.9757 68.0687 94.8949 67.9088C95.3232 67.8342 95.7665 67.8605 96.1919 67.6758C96.3677 67.599 96.6573 67.6758 96.8992 67.6424C98.1456 67.4683 99.3936 67.3006 100.643 67.1478C101.56 67.0355 102.481 66.9524 103.399 66.8522C104.587 66.7228 105.771 66.5729 106.96 66.4635C108.056 66.3626 109.154 66.2773 110.253 66.2325C113.769 66.0876 117.287 66.0002 120.805 66.0996C122.709 66.1537 124.614 66.2446 126.513 66.3782C128.893 66.5459 131.258 66.8678 133.604 67.3006C137.052 67.9373 140.411 68.893 143.668 70.2013C145.06 70.7605 146.45 71.3205 147.825 71.9181C147.986 71.9877 148.143 72.0673 148.285 72.1838C147.189 71.7902 146.089 71.405 144.997 71.0014C141.741 69.7969 138.395 69.0408 134.914 68.9094C131.397 68.7765 127.88 68.7303 124.364 68.9193C121.513 69.0721 118.669 69.3109 115.836 69.6655C112.884 70.0343 109.933 70.3953 106.982 70.7697C104.651 71.0654 102.323 71.3837 99.9912 71.6786C98.3634 71.8847 96.7327 72.0673 95.1034 72.2634C93.393 72.4688 91.6834 72.6862 89.9723 72.8824C88.7749 73.0195 87.5753 73.1332 86.3758 73.2512C85.3413 73.3535 84.3061 73.4473 83.2717 73.5475C83.2418 73.5503 83.214 73.5795 83.1749 73.6036C83.3158 73.8594 83.5868 73.7642 83.7711 73.7969C85.0205 74.0186 86.2791 74.1906 87.5334 74.3846C88.718 74.5686 89.8997 74.7747 91.0864 74.9431C91.9423 75.0646 92.8046 75.1357 93.6634 75.2373C94.6132 75.3496 95.5616 75.4818 96.5121 75.5855C97.1411 75.6537 97.775 75.68 98.4053 75.7354C99.1275 75.7994 99.8482 75.8825 100.571 75.9415C101.004 75.977 101.441 75.9884 101.874 76.0033C102.604 76.0289 103.335 76.0758 104.065 76.1C106.537 76.181 109.008 76.1995 111.48 76.154C112.5 76.1355 113.521 76.1447 114.537 76.0843C117.136 75.9301 119.737 75.7859 122.331 75.5606C125.436 75.2913 128.538 74.9886 131.639 74.6638C134.609 74.3526 137.577 74.0243 140.548 73.7131C143.601 73.3933 146.652 73.065 149.712 72.8149C151.396 72.6777 153.078 72.505 154.764 72.4198C158.409 72.2364 162.057 72.176 165.706 72.3117C166.511 72.3416 167.317 72.3459 168.119 72.402C169.65 72.5093 171.184 72.5818 172.713 72.7374C175.08 72.979 177.428 73.3194 179.755 73.8061C182.551 74.3903 185.247 75.2885 187.896 76.338C188.553 76.5981 189.211 76.8561 189.868 77.1147C189.847 77.1375 189.826 77.1602 189.805 77.1829C188.959 76.9833 188.163 76.6372 187.343 76.3608C185.996 75.9067 184.629 75.5244 183.225 75.3041C182.313 75.1606 181.4 75.0156 180.476 74.9353C179.6 74.8593 178.729 74.7612 177.847 74.7171C177.127 74.6816 176.407 74.7228 175.69 74.6653C173.727 74.5068 171.763 74.57 169.798 74.5985C168.753 74.6141 167.707 74.6759 166.662 74.7377C165.775 74.7903 164.89 74.8692 164.004 74.9452C162.135 75.1073 160.266 75.2735 158.397 75.4405C156.855 75.5784 155.312 75.7099 153.772 75.8633C152.97 75.9429 152.163 75.9891 151.366 76.0936C150.495 76.208 149.617 76.2208 148.745 76.3444C148.152 76.429 147.537 76.4553 146.933 76.5114C145.984 76.5995 145.032 76.6493 144.084 76.7679C143.429 76.8497 142.756 76.876 142.094 76.9385C141.31 77.0124 140.52 76.9975 139.736 77.1304C139.255 77.2114 138.746 77.1765 138.25 77.2135C137.159 77.2945 136.067 77.3641 134.975 77.4345C134.191 77.4849 133.405 77.5169 132.622 77.5787C131.637 77.6562 130.645 77.6363 129.667 77.7393C128.831 77.8275 127.999 77.7635 127.164 77.8367C126.432 77.9006 125.677 77.885 124.933 77.8566C124.71 77.8481 124.503 78.0264 124.279 77.8921H124.281L124.282 77.895Z" fill="#CB2228"/>
<path d="M121.633 56.0574C119.072 56.0574 116.511 56.0574 113.95 56.0574C113.422 56.0574 113.412 56.0475 113.412 55.5209C113.412 50.5708 113.412 45.6215 113.412 40.6714C113.412 40.1342 113.428 40.1143 113.956 40.218C114.731 40.3701 115.534 40.4575 116.267 40.7283C116.93 40.9734 117.609 41.183 118.262 41.4644C119.054 41.8055 119.806 42.2077 120.533 42.6668C120.833 42.8558 120.967 43.0789 120.965 43.4477C120.95 45.8872 120.957 48.326 120.958 50.7655C120.958 51.29 120.966 51.2978 121.498 51.2978C123.465 51.2978 125.437 51.3589 127.401 51.2743C128.924 51.2089 130.454 50.9872 131.791 50.1608C132.663 49.6222 133.246 48.8256 133.548 47.8322C133.959 46.4827 134.029 45.1063 133.823 43.7242C133.63 42.4245 133.198 41.2079 132.143 40.3346C131.296 39.6332 130.282 39.29 129.211 39.0662C127.559 38.7215 125.891 38.7315 124.22 38.7322C120.805 38.7336 117.39 38.7322 113.975 38.7322C113.562 38.7322 113.356 38.5325 113.355 38.1331C113.355 34.2845 113.355 30.4359 113.355 26.5879C113.355 26.1943 113.552 25.997 113.945 25.996C116.08 25.996 118.214 25.9953 120.348 25.996C120.891 25.996 120.898 26.0038 120.898 26.5574C120.899 28.8782 120.898 31.1991 120.9 33.5199C120.9 34.0074 120.917 34.0244 121.397 34.0251C123.626 34.0287 125.856 34.0116 128.084 34.0379C129.852 34.0592 131.612 34.1978 133.346 34.5822C135.458 35.0505 137.289 36.0098 138.832 37.5469C140.189 38.8984 141.115 40.4803 141.527 42.3378C142.053 44.7112 141.871 47.0505 140.952 49.3067C140.545 50.3058 139.972 51.2047 139.226 52.0126C137.168 54.239 134.534 55.2551 131.638 55.7767C130.387 56.002 129.127 56.0638 127.859 56.0588C125.785 56.0503 123.709 56.0567 121.635 56.0567L121.633 56.0574Z" fill="#121F42"/>
<path d="M97.834 56.6373C95.1212 56.6806 92.5023 56.3523 90.0107 55.3752C87.2758 54.3029 84.9984 52.628 83.6402 49.9448C82.6491 47.9857 82.4357 45.8787 82.7188 43.7163C82.9864 41.6719 83.8031 39.8819 85.2076 38.3619C86.6462 36.8057 88.4063 35.7491 90.3842 35.0328C92.3422 34.3236 94.3727 34.0237 96.4467 33.9306C98.8173 33.824 101.164 33.9612 103.469 34.5432C105.719 35.1109 107.787 36.0518 109.516 37.6357C112.272 40.1619 113.207 43.3205 112.734 46.9645C112.492 48.8235 111.796 50.4863 110.567 51.9011C109.115 53.5724 107.305 54.7335 105.228 55.4882C102.824 56.3622 100.336 56.682 97.834 56.6373ZM97.6426 38.6469C96.5 38.6718 95.3837 38.8388 94.3094 39.2623C93.5054 39.5785 92.7676 40.0404 92.1807 40.6302C91.3461 41.468 90.8673 42.5531 90.6574 43.732C90.503 44.5989 90.4788 45.4715 90.5863 46.347C90.883 48.7623 92.0932 50.5069 94.4062 51.3724C96.4829 52.1498 98.601 52.1207 100.711 51.4875C102.256 51.0242 103.405 50.0507 104.206 48.6621C104.765 47.6922 104.91 46.617 104.964 45.5255C104.996 44.8753 104.889 44.2358 104.77 43.5948C104.392 41.5604 103.221 40.1662 101.362 39.3227C100.184 38.7876 98.9219 38.6725 97.6433 38.6462L97.6426 38.6469Z" fill="#121F42"/>
<path d="M68.0398 44.5222C68.0398 42.7584 68.0405 40.994 68.0398 39.2303C68.0398 38.7343 68.0178 38.713 67.5147 38.7123C66.1039 38.7108 64.6938 38.7123 63.2829 38.7108C62.7764 38.7108 62.7522 38.6874 62.7515 38.1978C62.7493 37.0729 62.7493 35.9487 62.7515 34.8238C62.7522 34.335 62.7785 34.3094 63.2822 34.3094C64.681 34.3079 66.0797 34.3094 67.4785 34.3087C67.8755 34.3087 68.0744 34.1142 68.0754 33.7253C68.0754 31.4641 68.0754 29.203 68.0761 26.9418C68.0761 26.3591 68.0996 26.335 68.6709 26.335C70.7925 26.3343 72.9148 26.3336 75.0364 26.335C75.5544 26.335 75.5842 26.3648 75.5849 26.8736C75.5864 29.1582 75.5849 31.4435 75.5857 33.7281C75.5857 34.1137 75.7744 34.307 76.152 34.3079C78.4401 34.3079 80.7275 34.3079 83.0155 34.3087C83.5264 34.3087 83.5427 34.325 83.5434 34.8196C83.5449 35.9324 83.5456 37.0452 83.5434 38.158C83.5427 38.6441 83.5129 38.6739 83.0127 38.6746C80.7367 38.676 78.4607 38.6746 76.1847 38.6753C75.7858 38.6753 75.5859 38.8691 75.5849 39.2566C75.5849 41.991 75.5821 44.7261 75.5864 47.4605C75.5878 48.1605 75.6476 48.8554 75.8283 49.5355C76.1235 50.6497 76.8172 51.3639 77.9349 51.6758C78.7773 51.911 79.6382 51.9728 80.504 51.9899C81.3571 52.0062 82.2109 52.0048 83.0646 51.9892C83.4076 51.9828 83.5555 52.083 83.5498 52.4511C83.5328 53.6229 83.5349 54.7954 83.5484 55.9672C83.552 56.2947 83.4289 56.4035 83.1102 56.4006C80.408 56.3736 77.7023 56.4973 75.0051 56.3139C73.5082 56.2116 72.0682 55.8023 70.7868 54.9574C68.8865 53.7032 68.0939 51.8684 68.0476 49.6712C68.0114 47.9551 68.0405 46.2383 68.0405 44.5215H68.0384L68.0398 44.5222Z" fill="#121F42"/>
<path d="M41.3625 45.3372C41.3625 41.856 41.3625 38.3754 41.3625 34.8942C41.3625 34.3115 41.3647 34.3087 41.926 34.3087C46.2653 34.3108 50.6045 34.303 54.9438 34.3236C56.4187 34.3307 57.8779 34.5027 59.2752 35.0228C60.8525 35.6098 61.6914 36.7858 61.9688 38.4017C62.247 40.0248 62.0642 41.6627 62.1104 43.2928C62.1197 43.6105 61.8977 43.6098 61.6729 43.6098C59.9298 43.6098 58.1874 43.6098 56.4443 43.6098C56.053 43.6098 55.6617 43.5998 55.2704 43.6119C54.9936 43.6204 54.8904 43.501 54.8926 43.231C54.899 42.3669 54.8847 41.5021 54.8947 40.638C54.899 40.25 54.7987 39.8876 54.6749 39.5309C54.5326 39.1202 54.1825 38.9311 53.7905 38.8373C53.1559 38.6853 52.507 38.6128 51.856 38.5986C51.0855 38.5815 50.315 38.5915 49.5444 38.5936C49.0464 38.595 49.0272 38.6142 49.0272 39.1187C49.0265 43.8428 49.0272 48.5669 49.0272 53.2917C49.0272 54.1914 49.0187 55.0917 49.0308 55.9913C49.035 56.3132 48.9162 56.4276 48.5932 56.4269C46.3286 56.4177 44.064 56.4155 41.8001 56.429C41.4081 56.4312 41.359 56.2422 41.3597 55.9238C41.3654 52.3957 41.3633 48.8668 41.3633 45.3387L41.3625 45.3372Z" fill="#121F42"/>
<path d="M127.535 17.2961C126.52 17.2954 125.418 17.1732 124.36 16.7738C122.982 16.2543 122.131 15.2709 121.734 13.8639C121.498 13.0261 121.526 12.1833 121.589 11.3299C121.682 10.0785 121.946 8.86194 122.457 7.72426C123.349 5.73741 124.873 4.44412 126.996 3.90619C129.078 3.37821 131.176 3.32989 133.255 3.90264C135.216 4.44341 136.297 5.72676 136.45 7.74629C136.625 10.0586 136.167 12.2473 134.897 14.2256C133.947 15.7036 132.532 16.5272 130.879 16.9578C129.825 17.2329 128.745 17.4041 127.536 17.2961H127.535ZM124.948 11.7498C124.948 11.9865 124.93 12.2245 124.951 12.4597C125.038 13.4603 125.434 14.3037 126.42 14.6676C127.999 15.2503 129.541 15.1231 130.975 14.1872C131.336 13.952 131.635 13.6422 131.858 13.2734C132.826 11.6781 133.208 9.94348 132.966 8.10088C132.787 6.74931 131.894 5.96694 130.532 5.82766C130.036 5.77721 129.541 5.76371 129.043 5.8234C127.586 5.99963 126.481 6.69389 125.805 8.01419C125.204 9.18597 124.955 10.4416 124.947 11.7491L124.948 11.7498Z" fill="#121F42"/>
<path d="M69.8754 3.53241C70.8636 3.50967 71.8426 3.57505 72.7988 3.84294C74.8962 4.43061 75.9627 5.61803 76.1563 7.77969C76.3612 10.0693 75.8745 12.233 74.6358 14.1915C73.8532 15.4286 72.7206 16.2487 71.3453 16.7184C69.1803 17.4574 66.9683 17.5221 64.7592 16.9849C62.6924 16.4825 61.532 15.2048 61.3264 13.0993C61.1058 10.8467 61.5142 8.67931 62.7287 6.72871C63.8421 4.93941 65.5596 4.07176 67.5781 3.6994C68.34 3.5587 69.1063 3.52033 69.8775 3.53241H69.8754ZM72.7277 9.06872C72.7277 8.84417 72.7419 8.6182 72.7256 8.39436C72.6181 6.92768 71.743 6.01029 70.2945 5.83406C69.7388 5.76655 69.1831 5.75873 68.6289 5.83761C67.3739 6.01526 66.3486 6.59014 65.7062 7.69726C64.7983 9.26201 64.4761 10.9667 64.7087 12.7575C64.8567 13.8937 65.5561 14.5731 66.6524 14.8552C67.1967 14.9952 67.7545 15.0236 68.3116 14.9838C70.1365 14.853 71.4385 13.9882 72.1123 12.2544C72.51 11.2297 72.7355 10.1709 72.7277 9.06872Z" fill="#121F42"/>
<path d="M158.296 16.9898C156.826 16.9898 155.356 16.9912 153.886 16.9891C153.414 16.9891 153.376 16.923 153.474 16.4697C153.576 16.0085 153.672 15.5437 153.729 15.0755C153.771 14.728 153.927 14.6292 154.264 14.6313C156.54 14.6434 158.815 14.6441 161.092 14.6328C161.715 14.6299 162.338 14.61 162.955 14.4551C163.901 14.217 164.235 13.3629 164.19 12.5841C164.162 12.1002 163.857 11.769 163.374 11.6809C162.945 11.6027 162.516 11.5246 162.072 11.526C160.554 11.5303 159.037 11.5295 157.52 11.4961C156.79 11.4798 156.099 11.2574 155.457 10.9028C154.811 10.5446 154.431 9.98398 154.341 9.26201C154.144 7.69442 154.527 6.2725 155.568 5.07087C156.068 4.49315 156.769 4.20535 157.492 3.98293C158.516 3.66814 159.575 3.65037 160.628 3.64113C162.987 3.6191 165.346 3.63332 167.705 3.63474C168.208 3.63474 168.233 3.666 168.142 4.16911C168.052 4.67009 167.93 5.1668 167.87 5.67062C167.826 6.03871 167.651 6.13464 167.307 6.13322C165.007 6.12327 162.707 6.12896 160.407 6.12825C159.943 6.12825 159.483 6.16093 159.032 6.27463C158.181 6.48923 157.692 7.03498 157.557 7.89978C157.462 8.5038 157.696 8.90955 158.275 9.12202C158.624 9.24993 158.988 9.29327 159.358 9.29256C160.84 9.29256 162.322 9.29256 163.804 9.29825C164.495 9.30109 165.173 9.39631 165.834 9.60807C166.808 9.92003 167.365 10.5901 167.463 11.5949C167.572 12.729 167.355 13.8156 166.775 14.8061C166.07 16.012 164.923 16.54 163.616 16.837C162.936 16.992 162.253 16.9813 161.568 16.987C160.477 16.9962 159.387 16.9898 158.296 16.9898Z" fill="#121F42"/>
<path d="M112.259 11.4485C111.465 11.4485 110.671 11.4578 109.877 11.4436C109.583 11.4386 109.458 11.5459 109.412 11.8387C109.166 13.3814 108.902 14.9213 108.646 16.4618C108.587 16.8124 108.376 16.9882 108.013 16.9891C107.302 16.9898 106.591 16.9777 105.88 16.9941C105.539 17.0019 105.441 16.8875 105.519 16.5535C105.812 15.2922 105.972 14.0053 106.185 12.7305C106.482 10.9476 106.747 9.15755 107.04 7.37322C107.22 6.27818 107.418 5.18527 107.586 4.08881C107.627 3.8266 107.753 3.75199 107.987 3.7527C108.757 3.75483 109.528 3.74915 110.298 3.75412C110.699 3.75696 110.761 3.84366 110.69 4.26078C110.453 5.63722 110.216 7.01295 109.977 8.38868C109.87 9.00832 109.94 9.09431 110.571 9.09502C112.065 9.09573 113.558 9.08862 115.052 9.1007C115.371 9.10354 115.514 9.00264 115.567 8.67576C115.814 7.14654 116.087 5.6223 116.338 4.09379C116.378 3.84437 116.481 3.74843 116.729 3.75057C117.51 3.75838 118.293 3.75909 119.075 3.75057C119.389 3.74701 119.498 3.86568 119.445 4.1819C118.748 8.31051 118.053 12.4398 117.368 16.5699C117.318 16.869 117.202 17.0012 116.887 16.9948C116.129 16.9792 115.37 16.9799 114.612 16.9948C114.282 17.0012 114.207 16.8804 114.261 16.5677C114.525 15.052 114.771 13.5334 115.027 12.0163C115.122 11.4492 115.127 11.45 114.535 11.4492C113.777 11.4492 113.018 11.4492 112.26 11.4492L112.259 11.4485Z" fill="#121F42"/>
<path d="M146.322 11.4272C145.077 11.4272 143.833 11.4258 142.588 11.4272C142.065 11.4279 142.031 11.4642 142.016 11.9971C142.012 12.1392 142.011 12.2814 142.012 12.4235C142.026 13.7502 142.647 14.4224 143.98 14.5702C144.405 14.6171 144.83 14.637 145.258 14.6363C146.704 14.6363 148.151 14.642 149.597 14.6328C149.92 14.6306 150.019 14.7543 149.961 15.0634C149.879 15.5054 149.823 15.9523 149.748 16.3958C149.651 16.9642 149.648 16.965 149.08 16.965C147.515 16.965 145.951 16.9522 144.385 16.9706C143.72 16.9785 143.061 16.9259 142.408 16.8207C140.418 16.5009 139.069 15.3043 138.667 13.3359C138.45 12.2714 138.533 11.1664 138.762 10.0906C139.033 8.82001 139.459 7.61057 140.207 6.53329C141.267 5.00691 142.793 4.25296 144.568 3.91472C145.21 3.79249 145.86 3.74701 146.513 3.74914C148.114 3.75341 149.714 3.74914 151.315 3.75057C151.835 3.75057 151.844 3.7598 151.774 4.26291C151.712 4.70846 151.624 5.15046 151.58 5.59743C151.546 5.94065 151.39 6.05505 151.05 6.05221C149.473 6.04013 147.897 6.04653 146.319 6.04866C145.758 6.04937 145.207 6.12611 144.676 6.31229C143.493 6.728 142.876 7.64112 142.523 8.78093C142.46 8.98629 142.519 9.10212 142.753 9.09217C142.871 9.0872 142.99 9.09288 143.109 9.09288C145.552 9.09288 147.993 9.09288 150.436 9.0936C150.915 9.0936 150.942 9.12984 150.866 9.61092C150.791 10.0785 150.695 10.5439 150.646 11.0136C150.614 11.3355 150.466 11.4301 150.163 11.4279C148.882 11.418 147.602 11.4237 146.321 11.4244L146.322 11.4272Z" fill="#121F42"/>
<path d="M56.5361 3.7726C57.4368 3.7726 58.3375 3.7726 59.2389 3.7726C59.8679 3.7726 59.87 3.77402 59.7718 4.40787C59.7049 4.84063 59.6253 5.27126 59.5612 5.70473C59.5257 5.94633 59.4011 6.0515 59.155 6.04795C57.5791 6.02734 56.0032 6.05008 54.4273 6.02308C52.6251 5.99252 51.3879 6.74434 50.6871 8.5642C50.1933 9.84826 49.9542 11.1821 50.0268 12.5649C50.0852 13.6784 50.5825 14.2853 51.6668 14.5418C52.142 14.6541 52.6258 14.6917 53.1132 14.6917C54.6065 14.6917 56.0999 14.6917 57.594 14.6932C58.0394 14.6932 58.0615 14.7216 57.9931 15.1657C57.917 15.6567 57.8309 16.1463 57.7584 16.6381C57.7235 16.874 57.6203 16.9941 57.3649 16.9898C55.2205 16.9543 53.074 17.0744 50.9318 16.9138C49.8169 16.8306 48.7953 16.4832 47.9508 15.7207C46.9383 14.8076 46.562 13.6159 46.5627 12.3041C46.5641 10.5759 46.944 8.92163 47.7323 7.37393C48.6544 5.56403 50.1584 4.51802 52.1114 4.05755C53.0655 3.83229 54.0367 3.80884 55.0071 3.77544C55.5165 3.75767 56.0266 3.77331 56.5361 3.7726Z" fill="#121F42"/>
<path d="M98.4331 16.9891C97.2335 16.9642 95.8078 17.0694 94.3969 16.8108C92.4525 16.454 91.0672 15.1174 90.846 13.1625C90.5685 10.7145 91.1206 8.41781 92.5578 6.39401C93.657 4.84561 95.2898 4.1819 97.1105 3.91187C98.1343 3.76051 99.1659 3.76762 100.198 3.77188C101.324 3.77615 102.45 3.77117 103.576 3.77402C104.029 3.77544 104.063 3.82092 103.989 4.27712C103.913 4.7447 103.826 5.21015 103.761 5.67915C103.724 5.93567 103.605 6.05079 103.342 6.04937C101.788 6.04155 100.235 6.0714 98.6828 6.02947C96.934 5.98257 95.6498 6.74363 94.9775 8.35172C94.4318 9.65639 94.1628 11.0208 94.2134 12.4398C94.2589 13.7303 94.7911 14.3457 96.0518 14.5816C96.4609 14.6583 96.8728 14.6946 97.289 14.6939C98.7824 14.6917 100.277 14.6924 101.77 14.6939C102.228 14.6939 102.241 14.7059 102.181 15.1515C102.116 15.6326 102.028 16.1101 101.967 16.5912C101.931 16.8804 101.795 16.9962 101.5 16.9927C100.551 16.9813 99.6027 16.9884 98.4338 16.9884L98.4331 16.9891Z" fill="#121F42"/>
<path d="M85.8564 16.9294C85.2773 16.9884 84.5822 16.955 83.8857 17.004C82.61 17.0936 81.3123 17.0317 80.1803 16.2941C79.1708 15.6361 78.6236 14.7123 78.6073 13.4802C78.5888 12.1066 78.8876 10.777 79.1089 9.43611C79.3942 7.70934 79.6951 5.9847 79.9918 4.25936C80.0786 3.75341 80.0829 3.7527 80.6093 3.75199C81.2731 3.75057 81.9362 3.74986 82.6 3.75199C83.1251 3.75412 83.1685 3.80741 83.081 4.33824C82.6783 6.76566 82.2756 9.19308 81.8687 11.6198C81.7918 12.076 81.742 12.5329 81.752 12.9969C81.7669 13.7189 82.176 14.281 82.8676 14.5063C83.3222 14.6541 83.7918 14.7116 84.2684 14.7123C85.453 14.7145 86.6383 14.7145 87.8229 14.718C88.2939 14.7194 88.306 14.7351 88.2299 15.2083C88.1602 15.6404 88.0727 16.0703 88.0186 16.5045C87.9788 16.8292 87.8208 16.9458 87.5006 16.9344C86.9919 16.9166 86.4818 16.9294 85.8579 16.9294H85.8564Z" fill="#121F42"/>
<path d="M189.867 77.1183C190.176 77.244 190.485 77.3698 190.794 77.4949C190.451 77.4274 190.114 77.3435 189.804 77.1865C189.825 77.1637 189.846 77.141 189.867 77.1183Z" fill="#CB2228"/>
<path d="M21.4649 69.3848C21.2336 69.4871 21.0387 69.3649 20.8374 69.2796C21.0465 69.3144 21.2557 69.3492 21.4649 69.3848Z" fill="#CB2228"/>
</g>
</svg>
