<svg width="154" height="62" viewBox="0 0 154 62" fill="none" xmlns="http://www.w3.org/2000/svg">
<g clip-path="url(#clip0_275_792)">
<path d="M53.9352 31.1357H50.9281C50.9281 31.1357 49.8732 20.0121 49.8586 12.3267C49.8584 12.2186 49.8561 12.1126 49.8506 12.0047C49.8319 11.6342 49.7812 10.7196 49.7158 10.2527C49.6326 9.64654 41.3246 20.8071 35.0134 31.1238H27.1927C27.1927 31.1238 25.3742 30.9336 25.1483 32.0033C24.9225 33.073 27.8582 32.7164 33.6465 32.7164C33.6465 32.7164 27.9533 45.7906 17.4584 49.1661C14.3919 50.2358 9.49504 46.3254 15.3071 37.7559C15.3071 37.7559 16.4956 36.1989 16.151 35.7354C15.105 34.4042 3.81374 42.4507 8.75814 49.8435C14.3087 56.5351 28.9161 46.1709 35.7978 32.6451H44.7239C44.7239 32.6451 46.3284 32.8828 46.3284 35.1886C46.3284 37.4944 46.2809 42.1655 45.5321 43.1876C44.7714 44.2098 45.6034 44.5188 46.3284 43.9602C47.0653 43.4016 49.3355 41.9396 50.6429 41.4286V32.6332H54.0184C54.0184 32.6332 54.684 32.4668 54.684 31.825C54.684 31.1832 53.9471 31.1119 53.9471 31.1119L53.9352 31.1357ZM36.9269 30.8861L44.6644 19.8562C45.8173 22.9227 46.0907 30.8861 46.0907 30.8861H36.9269Z" fill="#FFF200"/>
<path d="M56.1947 32.0034C56.1709 32.0985 56.2304 32.1817 56.3254 32.1936C57.1337 32.2649 60.4022 32.3837 61.3055 29.7689C62.3276 26.7856 65.3941 12.9627 65.3941 12.9627L61.2223 13.9136C60.7944 14.0086 60.6756 14.5673 61.0321 14.8287L61.567 15.2329L56.1947 32.0034Z" fill="white"/>
<path d="M64.764 23.4219L67.7473 21.7342C67.7473 21.7342 67.6641 26.631 70.6355 29.1151L68.7932 30.8385C67.7591 31.8132 66.0714 31.4209 65.5603 30.0897C65.0017 28.6159 64.5382 26.4409 64.764 23.4219Z" fill="white"/>
<path d="M70.3263 16.9206L67.1291 20.1297C66.7725 20.4863 66.1782 20.2367 66.1782 19.7375V18.2993C66.1782 18.0973 66.2614 17.8952 66.3922 17.7407C66.8438 17.2653 67.8779 16.1956 68.6861 15.7558C68.8762 15.6489 69.114 15.6607 69.2922 15.7796L70.2669 16.3858C70.457 16.5046 70.4808 16.7661 70.3263 16.9206Z" fill="white"/>
<path d="M77.0294 21.7937C77.0294 21.7937 75.1633 22.8752 73.3448 24.3372C72.9883 24.6224 72.7268 25.0384 72.6436 25.4901C72.501 26.2032 72.5247 27.2254 73.5707 27.5582C73.5707 27.5582 76.0191 27.7602 77.1601 27.8553C78.0515 27.9266 78.6101 30.1373 77.1601 30.375C75.7101 30.6128 74.9969 29.1865 73.6658 29.1271C72.3346 29.0676 72.0612 29.7451 71.978 30.3988C71.8948 31.0525 72.9883 32.3243 76.2449 31.5874C79.5016 30.8505 81.641 27.9742 80.9041 26.0725C80.3098 24.5273 76.6253 26.6549 76.1855 24.6462C75.924 23.4576 76.447 22.8158 77.0413 22.7683C77.4572 22.7326 77.8732 23.0773 78.2536 23.3507C79.2044 24.0044 80.0602 23.945 80.3573 22.8515C80.4643 21.7342 79.668 20.308 77.0175 21.8055L77.0294 21.7937Z" fill="white"/>
<path d="M86.9898 21.7937C86.9898 21.7937 85.1238 22.8752 83.3053 24.3372C82.9487 24.6224 82.6872 25.0384 82.604 25.4901C82.4614 26.2032 82.4852 27.2254 83.5311 27.5582C83.5311 27.5582 85.9795 27.7602 87.1206 27.8553C88.012 27.9266 88.5706 30.1373 87.1206 30.375C85.6705 30.6128 84.9574 29.1865 83.6262 29.1271C82.295 29.0676 82.0217 29.7451 81.9385 30.3988C81.8553 31.0525 82.9487 32.3243 86.2054 31.5874C89.462 30.8505 91.6014 27.9742 90.8645 26.0725C90.2702 24.5273 86.5857 26.6549 86.1459 24.6462C85.8845 23.4576 86.4074 22.8158 87.0017 22.7683C87.4177 22.7326 87.8337 23.0773 88.214 23.3507C89.1649 24.0044 90.0206 23.945 90.3178 22.8515C90.4247 21.7342 89.6284 20.308 86.9779 21.8055L86.9898 21.7937Z" fill="white"/>
<path d="M107.492 28.7705C105.9 24.7294 102.643 22.9584 101.407 22.4236C101.086 22.281 100.718 22.2929 100.409 22.4711C97.6987 23.9449 92.8851 29.3885 91.7678 30.6722C91.6014 30.8623 91.5777 31.1357 91.7084 31.3378C92.5047 32.669 94.6441 32.146 94.6441 32.146C96.9143 31.7894 102.512 28.4139 102.512 28.4139C102.917 28.8418 104.2 30.7197 104.83 31.6349C105.008 31.8964 105.377 31.9083 105.579 31.6587L107.397 29.4123C107.54 29.234 107.588 28.9963 107.504 28.7824L107.492 28.7705ZM100.623 27.7959C99.6123 28.8418 98.3643 29.3291 97.7344 29.5312C97.4491 29.6144 97.152 29.5668 96.9262 29.3767C96.6647 29.1508 96.4507 28.8893 96.3081 28.6516C96.0704 28.2713 96.0942 27.784 96.3675 27.4274C97.1045 26.4647 98.3287 25.8704 98.9229 25.6208C99.1369 25.5257 99.3865 25.5376 99.5885 25.6446C100.147 25.9298 100.492 26.2389 100.706 26.5122C101.015 26.8926 100.967 27.4393 100.634 27.7959H100.623Z" fill="white"/>
<path d="M113.054 32.1579L115.206 30.8623C115.408 30.7435 115.538 30.5177 115.538 30.2799C115.562 29.0438 115.443 25.0859 112.924 22.1978C112.781 22.0314 112.555 21.9482 112.329 21.96C111.735 21.9957 110.523 22.1621 109.643 23.0416C109.489 23.1961 109.489 23.4576 109.643 23.6002C110.333 24.2064 111.985 26.2032 112.187 31.7062C112.199 32.1341 112.674 32.3718 113.031 32.1579H113.054Z" fill="white"/>
<path d="M115.076 23.7785C115.634 23.3031 116.74 22.4354 117.964 21.9362C118.285 21.8055 118.665 21.8412 118.962 22.0432C119.426 22.3522 120.127 22.9346 120.71 23.8974C120.852 24.1351 120.781 24.456 120.531 24.6105C119.973 24.9552 118.998 25.5494 118.368 25.8941C118.19 25.9892 117.976 26.0011 117.786 25.9298C117.31 25.7396 116.324 25.2999 115.123 24.4441C114.909 24.2896 114.886 23.9687 115.088 23.8023L115.076 23.7785Z" fill="white"/>
<path d="M62.9214 43.067C62.9214 43.0681 62.9221 43.0691 62.9231 43.0694L65.5058 43.8495C65.6894 43.9049 65.7984 44.0948 65.7444 44.2788C65.547 44.9524 65.2753 45.5212 64.9062 45.9927C64.4903 46.5394 63.9673 46.9554 63.3374 47.2288C62.7074 47.5022 61.923 47.6448 60.9602 47.6448C59.7955 47.6448 58.8327 47.4784 58.0958 47.1337C57.3589 46.789 56.7171 46.1947 56.1822 45.339C55.6474 44.4832 55.374 43.3898 55.374 42.0586C55.374 40.2757 55.8494 38.9089 56.7884 37.9581C57.7393 37.0072 59.0704 36.5199 60.8057 36.5199C62.1607 36.5199 63.2304 36.7933 64.0029 37.34C64.6878 37.8246 65.2232 38.5428 65.5926 39.4861C65.6701 39.6841 65.5466 39.8998 65.339 39.946L63.1114 40.442C62.9297 40.4825 62.7493 40.3769 62.6805 40.2039C62.6102 40.0273 62.54 39.8899 62.4697 39.7884C62.2795 39.5388 62.0537 39.3368 61.7922 39.206C61.5189 39.0753 61.2217 39.004 60.8889 39.004C60.1401 39.004 59.5577 39.313 59.1536 39.9073C58.8565 40.3589 58.702 41.0602 58.702 42.0229C58.702 43.2115 58.8803 44.0316 59.2487 44.4713C59.6172 44.9111 60.1164 45.1369 60.7701 45.1369C61.4238 45.1369 61.8873 44.9586 62.2082 44.6021C62.5257 44.2493 62.7618 43.7336 62.9164 43.0665C62.9171 43.0637 62.9214 43.0641 62.9214 43.067Z" fill="#FFF200"/>
<path d="M67.0337 42.0942C67.0337 40.3352 67.521 38.9683 68.4956 37.9937C69.4702 37.0191 70.8371 36.5199 72.5842 36.5199C74.3314 36.5199 75.7577 36.9953 76.7204 37.9581C77.6832 38.9208 78.1705 40.2639 78.1705 41.9991C78.1705 43.259 77.9565 44.2812 77.5405 45.0894C77.1127 45.8976 76.5065 46.5157 75.7102 46.9673C74.9138 47.419 73.9154 47.6329 72.715 47.6329C71.5145 47.6329 70.4924 47.4427 69.7079 47.0505C68.9235 46.6583 68.2698 46.0521 67.7706 45.2201C67.2714 44.3881 67.0337 43.3422 67.0337 42.0823V42.0942ZM70.3616 42.1061C70.3616 43.1877 70.5637 43.9722 70.9678 44.4476C71.3719 44.923 71.9187 45.1607 72.6199 45.1607C73.3212 45.1607 73.8917 44.923 74.2839 44.4595C74.6761 43.9959 74.8663 43.1639 74.8663 41.9635C74.8663 40.9532 74.6642 40.2163 74.2482 39.7409C73.8441 39.2773 73.2855 39.0396 72.5842 39.0396C71.883 39.0396 71.3719 39.2773 70.9678 39.7528C70.5637 40.2282 70.3616 41.0126 70.3616 42.1061Z" fill="#FFF200"/>
<path d="M79.9775 37.0705C79.9775 36.8715 80.1389 36.7102 80.3379 36.7102H82.9452C83.1442 36.7102 83.3055 36.8715 83.3055 37.0705V44.4558C83.3055 44.6548 83.4668 44.8162 83.6658 44.8162H88.1273C88.3263 44.8162 88.4876 44.9775 88.4876 45.1765V47.1063C88.4876 47.3053 88.3263 47.4666 88.1273 47.4666H80.3379C80.1389 47.4666 79.9775 47.3053 79.9775 47.1063V37.0705Z" fill="#FFF200"/>
<path d="M96.9018 43.067C96.9018 43.0681 96.9025 43.0691 96.9036 43.0694L99.4863 43.8495C99.6698 43.9049 99.7788 44.0948 99.7249 44.2788C99.5275 44.9524 99.2557 45.5212 98.8867 45.9927C98.4707 46.5394 97.9478 46.9554 97.3178 47.2288C96.6879 47.5022 95.9034 47.6448 94.9407 47.6448C93.7759 47.6448 92.8132 47.4784 92.0763 47.1337C91.3394 46.789 90.6976 46.1947 90.1627 45.339C89.6279 44.4832 89.3545 43.3898 89.3545 42.0586C89.3545 40.2757 89.8299 38.9089 90.7689 37.9581C91.7197 37.0072 93.0509 36.5199 94.7862 36.5199C96.1412 36.5199 97.2108 36.7933 97.9834 37.34C98.6682 37.8246 99.2036 38.5428 99.573 39.4861C99.6506 39.6841 99.5271 39.8998 99.3195 39.946L97.0919 40.442C96.9101 40.4825 96.7297 40.3769 96.6609 40.2039C96.5907 40.0273 96.5204 39.8899 96.4502 39.7884C96.26 39.5388 96.0342 39.3368 95.7727 39.206C95.4993 39.0753 95.2022 39.004 94.8694 39.004C94.1206 39.004 93.5382 39.313 93.1341 39.9073C92.837 40.3589 92.6824 41.0602 92.6824 42.0229C92.6824 43.2115 92.8607 44.0316 93.2292 44.4713C93.5976 44.9111 94.0968 45.1369 94.7505 45.1369C95.4042 45.1369 95.8678 44.9586 96.1887 44.6021C96.5062 44.2493 96.7423 43.7336 96.8969 43.0665C96.8976 43.0637 96.9018 43.0641 96.9018 43.067Z" fill="#FFF200"/>
<path d="M101.442 37.0705C101.442 36.8715 101.603 36.7102 101.802 36.7102H104.41C104.609 36.7102 104.77 36.8715 104.77 37.0705V40.1176C104.77 40.3166 104.931 40.4779 105.13 40.4779H108.047C108.246 40.4779 108.407 40.3166 108.407 40.1176V37.0705C108.407 36.8715 108.568 36.7102 108.767 36.7102H111.386C111.585 36.7102 111.747 36.8715 111.747 37.0705V47.1063C111.747 47.3053 111.585 47.4666 111.386 47.4666H108.767C108.568 47.4666 108.407 47.3053 108.407 47.1063V43.4768C108.407 43.2778 108.246 43.1165 108.047 43.1165H105.13C104.931 43.1165 104.77 43.2778 104.77 43.4768V47.1063C104.77 47.3053 104.609 47.4666 104.41 47.4666H101.802C101.603 47.4666 101.442 47.3053 101.442 47.1063V37.0705Z" fill="#FFF200"/>
<path d="M113.53 42.0942C113.53 40.3352 114.017 38.9683 114.992 37.9937C115.966 37.0191 117.333 36.5199 119.08 36.5199C120.828 36.5199 122.254 36.9953 123.217 37.9581C124.179 38.9208 124.667 40.2639 124.667 41.9992C124.667 43.259 124.453 44.2812 124.037 45.0894C123.609 45.8976 123.003 46.5157 122.206 46.9673C121.41 47.419 120.412 47.6329 119.211 47.6329C118.011 47.6329 116.988 47.4427 116.204 47.0505C115.42 46.6583 114.766 46.0521 114.267 45.2201C113.767 44.3882 113.53 43.3422 113.53 42.0824V42.0942ZM120.59 34.0477C120.59 34.0411 120.595 34.0358 120.602 34.0358H121.422C121.606 34.0358 121.755 34.1848 121.755 34.3686C121.755 34.9154 121.612 35.3314 121.339 35.6285C121.065 35.9256 120.709 36.0801 120.281 36.0801C119.972 36.0801 119.496 35.9494 118.855 35.6879C118.462 35.5334 118.201 35.4502 118.058 35.4502C117.916 35.4502 117.809 35.4978 117.725 35.581C117.696 35.6107 117.672 35.651 117.654 35.7009C117.586 35.8879 117.445 36.0564 117.246 36.0564H116.775C116.604 36.0564 116.466 35.918 116.466 35.7473C116.466 35.2244 116.608 34.8084 116.893 34.4994C117.179 34.1903 117.523 34.0358 117.916 34.0358C118.082 34.0358 118.248 34.0596 118.403 34.0953C118.557 34.1309 118.831 34.2379 119.247 34.4162C119.651 34.5826 119.948 34.6776 120.138 34.6776C120.269 34.6776 120.376 34.6301 120.459 34.5469C120.542 34.4518 120.59 34.2973 120.59 34.0477ZM116.858 42.1061C116.858 43.1877 117.06 43.9722 117.464 44.4476C117.868 44.923 118.415 45.1607 119.116 45.1607C119.817 45.1607 120.388 44.923 120.78 44.4595C121.172 43.9959 121.362 43.1639 121.362 41.9635C121.362 40.9532 121.16 40.2163 120.744 39.7409C120.34 39.2774 119.782 39.0397 119.08 39.0397C118.379 39.0397 117.868 39.2774 117.464 39.7528C117.06 40.2282 116.858 41.0127 116.858 42.1061Z" fill="#FFF200"/>
<path d="M126.449 37.0705C126.449 36.8715 126.611 36.7102 126.81 36.7102H134.991C135.19 36.7102 135.352 36.8715 135.352 37.0705V38.6438C135.352 38.8428 135.19 39.0041 134.991 39.0041H130.137C129.938 39.0041 129.777 39.1654 129.777 39.3644V40.3553C129.777 40.5543 129.938 40.7156 130.137 40.7156H134.587C134.786 40.7156 134.947 40.877 134.947 41.076V42.5542C134.947 42.7532 134.786 42.9145 134.587 42.9145H130.137C129.938 42.9145 129.777 43.0758 129.777 43.2748V44.6698C129.777 44.8688 129.938 45.0301 130.137 45.0301H135.158C135.357 45.0301 135.518 45.1914 135.518 45.3904V47.1063C135.518 47.3053 135.357 47.4666 135.158 47.4666H126.81C126.611 47.4666 126.449 47.3053 126.449 47.1063V37.0705Z" fill="#FFF200"/>
<path d="M136.728 43.9081C136.73 43.911 136.733 43.9126 136.736 43.9124L139.559 43.732C139.747 43.72 139.91 43.8557 139.952 44.0396C140.031 44.3933 140.152 44.6759 140.308 44.8873C140.653 45.3271 141.14 45.541 141.77 45.541C142.246 45.541 142.614 45.4341 142.864 45.2082C143.113 44.9824 143.244 44.7328 143.244 44.4357C143.244 44.1623 143.125 43.9127 142.876 43.6869C142.626 43.4611 142.067 43.259 141.176 43.0688C139.714 42.736 138.68 42.3082 138.062 41.7614C137.432 41.2147 137.123 40.5253 137.123 39.6815C137.123 39.1347 137.278 38.6118 137.598 38.1126C137.919 37.6253 138.395 37.233 139.048 36.9478C139.702 36.6625 140.57 36.5199 141.699 36.5199C143.078 36.5199 144.124 36.7814 144.849 37.2925C145.489 37.744 145.898 38.4273 146.074 39.3508C146.113 39.5546 145.958 39.7389 145.75 39.7507L143.316 39.889C143.133 39.8994 142.975 39.7694 142.922 39.5937C142.825 39.2679 142.673 39.0234 142.472 38.8495C142.21 38.6236 141.842 38.5167 141.366 38.5167C140.974 38.5167 140.689 38.5999 140.499 38.7663C140.308 38.9327 140.201 39.1347 140.201 39.3605C140.201 39.5269 140.285 39.6815 140.439 39.8241C140.594 39.9667 140.962 40.0975 141.556 40.2163C143.006 40.5253 144.052 40.8462 144.682 41.1672C145.312 41.4881 145.764 41.8803 146.049 42.3557C146.334 42.8311 146.477 43.366 146.477 43.9484C146.477 44.6377 146.287 45.2796 145.906 45.8501C145.526 46.4325 144.991 46.8722 144.302 47.1694C143.613 47.4665 142.757 47.621 141.711 47.621C139.88 47.621 138.609 47.2645 137.907 46.5632C137.214 45.87 136.811 44.9794 136.71 43.9144C136.71 43.9045 136.722 43.8999 136.728 43.9081Z" fill="#FFF200"/>
</g>
<defs>
<clipPath id="clip0_275_792">
<rect width="154" height="61.6" fill="white" transform="translate(0 0.400024)"/>
</clipPath>
</defs>
</svg>
