<svg width="60" height="47" viewBox="0 0 60 47" fill="none" xmlns="http://www.w3.org/2000/svg">
<path d="M45.2695 0C48.024 0 50.2994 0.54023 52.0958 1.62069C53.8922 2.70115 55.3892 4.14177 56.5868 5.94253C57.7844 7.86335 58.6826 10.0243 59.2814 12.4253C59.7605 14.8263 60 16.9872 60 18.908C60 24.7905 58.503 30.1929 55.509 35.1149C52.3952 40.037 47.6647 43.9987 41.3174 47L39.7006 43.7586C43.2934 42.198 46.4072 39.7969 49.0419 36.5556C51.6766 33.3142 53.1138 30.0128 53.3533 26.6513C53.5928 24.8506 53.4731 23.1699 52.994 21.6092C50.8383 23.6501 48.2036 24.6705 45.0898 24.6705C41.6168 24.6705 38.6826 23.53 36.2874 21.249C33.8922 19.0881 32.6946 16.0868 32.6946 12.2452C32.6946 8.64368 33.9521 5.70243 36.4671 3.42146C38.8623 1.14048 41.7964 0 45.2695 0ZM12.5748 0C15.3293 0 17.6048 0.54023 19.4012 1.62069C21.1976 2.70115 22.6946 4.14177 23.8922 5.94253C25.0898 7.86335 25.988 10.0243 26.5868 12.4253C27.0659 14.8263 27.3054 16.9872 27.3054 18.908C27.3054 24.7905 25.8084 30.1929 22.8144 35.1149C19.7006 40.037 14.9701 43.9987 8.62275 47L7.00599 43.7586C10.5988 42.198 13.7126 39.7969 16.3473 36.5556C18.982 33.3142 20.4192 30.0128 20.6587 26.6513C20.8982 24.8506 20.7784 23.1699 20.2994 21.6092C18.1437 23.6501 15.509 24.6705 12.3952 24.6705C8.92215 24.6705 5.98802 23.53 3.59282 21.249C1.19761 19.0881 0 16.0868 0 12.2452C0 8.64368 1.25748 5.70243 3.77245 3.42146C6.16766 1.14048 9.1018 0 12.5748 0Z" fill="#292D2C"/>
</svg>
