<svg width="57" height="56" viewBox="0 0 57 56" fill="none" xmlns="http://www.w3.org/2000/svg">
<path d="M41.7655 31.684L34.6405 28.184C34.3601 28.0467 34.0477 27.9845 33.735 28.0037C33.4222 28.0229 33.1202 28.1228 32.8593 28.2934L29.5885 30.4371C28.087 29.6262 26.8514 28.4123 26.026 26.9371L28.208 23.7237C28.3816 23.4674 28.4833 23.1706 28.5028 22.8634C28.5224 22.5561 28.4591 22.2492 28.3193 21.9737L24.7568 14.9737C24.6092 14.6807 24.3809 14.4342 24.098 14.2622C23.815 14.0901 23.4887 13.9994 23.1559 14.0002C20.7938 14.0002 18.5285 14.9221 16.8583 16.5631C15.188 18.204 14.2497 20.4296 14.2497 22.7502C14.2556 27.8539 16.3218 32.7468 19.9951 36.3557C23.6683 39.9645 28.6487 41.9945 33.8434 42.0002C35.013 42.0002 36.1712 41.7739 37.2517 41.3342C38.3323 40.8945 39.3141 40.2499 40.1411 39.4374C40.9681 38.6249 41.6242 37.6603 42.0717 36.5987C42.5193 35.5371 42.7497 34.3993 42.7497 33.2502C42.7499 32.9251 42.658 32.6064 42.4841 32.3297C42.3103 32.0531 42.0615 31.8295 41.7655 31.684ZM33.8434 38.5002C29.5931 38.4956 25.5183 36.8348 22.5128 33.8821C19.5074 30.9294 17.8169 26.926 17.8122 22.7502C17.8118 21.5364 18.2396 20.36 19.0227 19.4212C19.8058 18.4823 20.8958 17.8391 22.1072 17.6009L24.6633 22.6321L22.488 25.8127C22.3254 26.0523 22.2255 26.3276 22.1972 26.6141C22.1688 26.9007 22.2129 27.1897 22.3254 27.4556C23.5999 30.4314 26.0095 32.7988 29.0385 34.0509C29.3099 34.1664 29.6063 34.2136 29.901 34.1884C30.1956 34.1632 30.4792 34.0663 30.7262 33.9065L33.9793 31.7759L39.1003 34.2871C38.856 35.4787 38.1984 36.55 37.2397 37.3184C36.281 38.0867 35.0806 38.5044 33.8434 38.5002ZM28.4997 5.25024C24.5018 5.24939 20.5718 6.26544 17.0922 8.1995C13.6126 10.1336 10.702 12.9197 8.64358 16.2868C6.58518 19.6539 5.44915 23.4873 5.34608 27.4137C5.243 31.3401 6.17639 35.2259 8.05539 38.6927L5.52824 46.1412C5.31891 46.7579 5.28853 47.4196 5.44051 48.0523C5.59249 48.685 5.92081 49.2636 6.3887 49.7233C6.85658 50.183 7.44552 50.5056 8.08951 50.6549C8.73351 50.8042 9.4071 50.7743 10.0348 50.5687L17.6162 48.0859C20.7218 49.7087 24.1628 50.6151 27.6781 50.7362C31.1935 50.8574 34.6907 50.1902 37.9044 48.7853C41.1181 47.3803 43.9637 45.2746 46.2254 42.6278C48.487 39.981 50.1052 36.8629 50.9571 33.51C51.809 30.1571 51.8722 26.6576 51.1419 23.2771C50.4116 19.8966 48.9071 16.724 46.7424 14.0001C44.5778 11.2761 41.81 9.07251 38.649 7.55643C35.4881 6.04034 32.0172 5.25166 28.4997 5.25024ZM28.4997 47.2502C25.0551 47.2525 21.671 46.3614 18.6894 44.6668C18.4711 44.5424 18.2284 44.465 17.9774 44.4398C17.7264 44.4145 17.4727 44.4419 17.2333 44.5202L8.90593 47.2502L11.6825 39.069C11.7625 38.8339 11.7908 38.5848 11.7654 38.3382C11.7401 38.0915 11.6617 37.853 11.5355 37.6384C9.37567 33.9697 8.50851 29.7034 9.06854 25.5012C9.62856 21.2989 11.5845 17.3957 14.6328 14.397C17.6812 11.3984 21.6517 9.47183 25.9282 8.91633C30.2048 8.36082 34.5484 9.20738 38.2853 11.3247C42.0221 13.442 44.9434 16.7117 46.5957 20.6265C48.2481 24.5414 48.5394 28.8825 47.4242 32.9766C46.309 37.0706 43.8499 40.6887 40.4282 43.2695C37.0064 45.8503 32.8135 47.2495 28.4997 47.2502Z" fill="url(#paint0_linear_275_748)"/>
<defs>
<linearGradient id="paint0_linear_275_748" x1="51.6464" y1="5.25024" x2="-3.38274" y2="21.8646" gradientUnits="userSpaceOnUse">
<stop stop-color="#1357B3"/>
<stop offset="1" stop-color="#0867E8"/>
</linearGradient>
</defs>
</svg>
